<svg xmlns="http://www.w3.org/2000/svg" viewBox="0 0 800 600" width="800" height="600"><rect width="800" height="600" fill="#f5f3ed"/><line x1="120" y1="80" x2="120" y2="520" stroke="#17181c" stroke-width="2"/><line x1="236" y1="80" x2="236" y2="520" stroke="#17181c" stroke-width="2"/><line x1="352" y1="80" x2="352" y2="520" stroke="#17181c" stroke-width="2"/><line x1="468" y1="80" x2="468" y2="520" stroke="#17181c" stroke-width="2"/><line x1="584" y1="80" x2="584" y2="520" stroke="#17181c" stroke-width="2"/><line x1="700" y1="80" x2="700" y2="520" stroke="#17181c" stroke-width="2"/><line x1="120" y1="80" x2="700" y2="80" stroke="#17181c" stroke-width="2"/><line x1="120" y1="168" x2="700" y2="168" stroke="#17181c" stroke-width="2"/><line x1="120" y1="256" x2="700" y2="256" stroke="#17181c" stroke-width="2"/><line x1="120" y1="344" x2="700" y2="344" stroke="#17181c" stroke-width="2"/><line x1="120" y1="432" x2="700" y2="432" stroke="#17181c" stroke-width="2"/><line x1="120" y1="520" x2="700" y2="520" stroke="#17181c" stroke-width="2"/><rect x="236" y="168" width="232" height="176" fill="#d6452b"/><rect x="468" y="344" width="116" height="88" fill="#17181c"/></svg>
